<?xml version="1.0" encoding="UTF-8"?>
<!-- Generator: Adobe Illustrator 14.0.0, SVG Export Plug-In . SVG Version: 6.00 Build 43363)  -->
<!DOCTYPE svg PUBLIC "-//W3C//DTD SVG 1.1//EN" "http://www.w3.org/Graphics/SVG/1.1/DTD/svg11.dtd">
<svg version="1.1" id="Layer_1" xmlns="http://www.w3.org/2000/svg" xmlns:xlink="http://www.w3.org/1999/xlink" x="0px" y="0px" width="280px" height="103px" viewBox="0 0 280 103" enable-background="new 0 0 280 103" xml:space="preserve">
<linearGradient id="SVGID_1_" gradientUnits="userSpaceOnUse" x1="747.7109" y1="-892.3701" x2="737.6937" y2="-873.7014" gradientTransform="matrix(1, 0, 0, -1, -728.96, -837.16)">
	<stop offset="0" style="stop-color:#0070B6"/>
	<stop offset="1" style="stop-color:#1D2C5E"/>
</linearGradient>
<polygon fill="url(#SVGID_1_)" points="17.477,58.544 22.278,53.965 9.189,34.446 5.451,38.243 "/>
<polygon fill="#0071B9" points="183.544,24.964 189.296,23.108 188.579,19.83 184.009,22.288 "/>
<linearGradient id="SVGID_2_" gradientUnits="userSpaceOnUse" x1="869.8857" y1="-854.2334" x2="882.601" y2="-840.6094" gradientTransform="matrix(1, 0, 0, -1, -728.96, -837.16)">
	<stop offset="0" style="stop-color:#0070B6"/>
	<stop offset="1" style="stop-color:#1D2C5E"/>
</linearGradient>
<polygon fill="url(#SVGID_2_)" points="131.987,25.236 137.373,23.687 154.994,1.686 150.495,4.012 "/>
<polygon fill="#1D2C5E" points="245.635,53.832 249.507,33.031 253.655,30.512 249.807,54.969 "/>
<polygon fill="#1D2C5E" points="225.309,41.153 230.463,38.651 225.99,36.982 221.271,40.326 "/>
<linearGradient id="SVGID_3_" gradientUnits="userSpaceOnUse" x1="814.4131" y1="-876.9463" x2="812.8968" y2="-864.2079" gradientTransform="matrix(1, 0, 0, -1, -728.96, -837.16)">
	<stop offset="0" style="stop-color:#0070B6"/>
	<stop offset="1" style="stop-color:#1D2C5E"/>
</linearGradient>
<polygon fill="url(#SVGID_3_)" points="82.695,41.43 88.331,39.153 86.644,25.782 82.049,28.247 "/>
<linearGradient id="SVGID_4_" gradientUnits="userSpaceOnUse" x1="953.3066" y1="-874.4946" x2="952.7011" y2="-862.9966" gradientTransform="matrix(1, 0, 0, -1, -728.96, -837.16)">
	<stop offset="0" style="stop-color:#125D9E"/>
	<stop offset="1" style="stop-color:#1D2C5E"/>
</linearGradient>
<polygon fill="url(#SVGID_4_)" points="221.271,40.326 225.837,37.986 227.27,31.42 225.641,24.313 221.105,26.761 "/>
<polygon fill="#312370" points="220.023,85.561 228.008,83.986 229.572,38.798 225.018,41.191 "/>
<polygon fill="#21386E" points="239.788,84.52 224.553,83.182 220.023,85.561 235.848,88.041 234.751,93.417 250.266,98.59   254.828,96.172 "/>
<polygon fill="#21386E" points="184.368,66.189 162.57,69.925 158.318,73.966 177.934,77.105 181.701,75.076 184.102,79.512   187.652,77.561 188.359,83.409 210.643,87.361 215.096,84.912 "/>
<linearGradient id="SVGID_5_" gradientUnits="userSpaceOnUse" x1="910.8721" y1="-857.9209" x2="897.5289" y2="-879.1486" gradientTransform="matrix(1, 0, 0, -1, -728.96, -837.16)">
	<stop offset="0" style="stop-color:#125D9E"/>
	<stop offset="1" style="stop-color:#1D2C5E"/>
</linearGradient>
<polygon fill="url(#SVGID_5_)" points="158.318,73.966 162.832,71.621 170.568,44.11 170.838,22.514 166.377,24.969 "/>
<polygon fill="#1D2C5E" points="140.443,26.786 136.747,22.82 131.987,25.236 135.24,29.081 131.686,30.974 131.985,32.159 "/>
<polygon fill="#21386E" points="108.617,68.957 113.179,65.508 149.479,84.516 144.957,86.958 "/>
<polygon fill="#1D2C5E" points="106.525,30.406 112.344,28.644 116.543,17.516 112.032,19.963 "/>
<linearGradient id="SVGID_6_" gradientUnits="userSpaceOnUse" x1="792.7822" y1="-891.9697" x2="801.88" y2="-909.8622" gradientTransform="matrix(1, 0, 0, -1, -728.96, -837.16)">
	<stop offset="0" style="stop-color:#105FA1"/>
	<stop offset="1" style="stop-color:#1D2C5E"/>
</linearGradient>
<path fill="url(#SVGID_6_)" d="M62.084,63.105l-4.646,3.188c0,0,0.986,5.185,2.257,8.79c1.278,3.619,4.32,6.525,4.32,6.525  c1.954,1.91,4.349,3.301,7.021,4.08c5.139,1.479,10.939,0.516,15.918-2.66c1.302-0.823,3.069-2.143,4.155-3.184  C86.215,82.816,62.084,63.105,62.084,63.105z"/>
<polygon fill="#1D2C5E" points="91.647,37.551 87.224,39.041 82.695,41.43 86.947,40.355 91.187,87.131 108.511,84.568   113.146,82.139 "/>
<linearGradient id="SVGID_7_" gradientUnits="userSpaceOnUse" x1="763.7109" y1="-880.7798" x2="775.3129" y2="-907.6754" gradientTransform="matrix(1, 0, 0, -1, -728.96, -837.16)">
	<stop offset="0" style="stop-color:#105FA1"/>
	<stop offset="1" style="stop-color:#1D2C5E"/>
</linearGradient>
<polygon fill="url(#SVGID_7_)" points="76.081,90.709 77.875,88.625 49.375,40.75 21.75,50.811 21.292,54.477 17.477,58.544   22.001,56.602 39.117,100.819 58.625,94.625 59.019,96.12 "/>
<path fill="#1D2C5E" d="M213.832,77.313l0.26,2.155c1.584-0.178,3.248-0.383,4.672-0.89c1.66-0.568,5.266-2.174,6.637-3.357  C224.887,75.408,216.438,77.598,213.832,77.313"/>
<path fill="#1D2C5E" d="M148.773,66.104l0.689,3.471c3.723-0.555,6.917-1.932,10.059-3.819c1.971-1.174,4.135-2.944,4.817-3.417  C163.857,62.646,148.773,66.104,148.773,66.104z"/>
<g>
	<path fill="#FFCB05" d="M49.625,43.75l-5.458-0.917l14.058,49.254l-10.752,3.499l-3.324,1.07l0,0l-1.437-3.193L26.6,52.186   l-0.377-0.839l-0.834,0.385l-0.557,0.256l-3.267,1.604c-0.482-0.808-1.282-2.162-1.838-3.101L12.34,38.006l-1.932-3.259   l51.78-20.882L70.303,49.5l1.953-1.416c1.316-0.955,2.746-1.771,4.25-2.426c2.6-1.099,5.29-1.66,7.985-1.66   c2.551,0,4.963,0.505,7.17,1.498l1.423,0.638l-0.143-1.553l-0.619-6.711l-0.1-1.064l-1.036,0.269l-3.109,0.806l-0.545-11.427   l22.774-7.276l-0.184,8.881l1.715,0.44l4.974-9.532l14.897,13.212l0.621,0.553l0.606-0.57c2.041-1.918,4.46-3.457,7.189-4.574   l1.14-0.466l-0.781-0.953l-2.686-3.274L154.9,3.181l8.957,13.365l-13.711,7.37l-3.045,1.638l3.457,0.073   c6.5,0.137,12.256,2.887,16.205,7.742l1.428,1.761l0.92,1.131l-1.528,1.622l-1.019,1.082l-3.426,3.654l-0.638,0.679l0.688,0.622   l3.211,2.891l1.242,1.117l0.267-1.648l1.231-7.627l0.315-1.958l0.01,0.011l0.324-2l1.839-11.26h16.418h0.77l0.131-0.759l0.32-1.928   h14.785l3.582,22.621l0.233,1.465l1.2-0.871c1.451-1.054,3.054-1.921,4.766-2.576c2.279-0.86,4.625-1.299,6.967-1.299   c2.788,0,5.495,0.644,7.836,1.861c0.063,0.045,0.15,0.103,0.271,0.151l1.11,0.446l0.131-1.192l0.269-2.465l0.088-0.808   l-0.795-0.177l-2.998-0.67l-0.146-11.792l22.856,5.031l-3.86,23.735l3.781,0.75l5.342-23.267l19.061,4.635L254.268,95.04   l-13.938-4.377L241.375,85l-15.835-2.59l0.787-7.069l0.187-1.682l-1.505,0.771c-0.713,0.363-1.403,0.668-2.055,0.908   c-2.274,0.86-4.603,1.295-6.922,1.295c-0.671,0-1.345-0.037-2.001-0.111l-1.188-0.133l0.187,1.18l0.979,6.218l-20.291-3.579   l-1.063-9.227l-0.342-2.957l-1.367,2.644l-2.336,4.505l-4.301-7.939l-1.293-2.385l-0.408,2.68l-0.938,6.146l-17.783-2.799   l1.379-8.435l0.314-1.935l-1.682,1.005c-2.91,1.745-6.254,3.059-10.217,4.016c-1.385,0.338-2.832,0.572-4.305,0.693l-0.834,0.07   v0.837v15.918l-35.023-17.31l-1.316-0.648l0.001,1.467l0.024,14.805L96.57,83.664l-0.658-7.109l-0.178-1.902l-1.365,1.339   C87.125,83.25,75.25,81.5,75.25,81.5l1.625,6.75L62,92.5L49.625,43.75z M126.982,42.287l-1.775,1.728l-4.675,4.543l-1.018,0.989   l1.325,0.512l5.014,1.935l1.54,0.593l-0.318-1.618c-0.414-2.09-0.522-4.182-0.328-6.217L126.982,42.287L126.982,42.287z    M147.398,37.12c-1.939,0-3.815,0.834-5.148,2.286c-2.022,2.208-2.415,5.465-0.977,8.103l0.381,0.715l0.613,1.143l0.862-0.966   l0.556-0.615l6.857-7.83l0.539-0.62l0.865-0.994l-1.234-0.457l-0.77-0.284C149.137,37.285,148.273,37.12,147.398,37.12   L147.398,37.12z"/>
</g>
<path fill="#7D7F68" d="M157.889,48.718c-0.065,0.058-0.127,0.132-0.179,0.208c0.069-0.063,0.136-0.118,0.207-0.176L157.889,48.718z  "/>
<polygon fill="#7D7F68" points="164.837,48.294 165.418,44.702 167.014,46.131 163.802,43.241 167.227,39.587 166.055,40.831   166.089,40.674 165.053,41.767 161.631,45.41 "/>
<polygon fill="#7D7F68" points="167.014,46.131 168.244,38.505 167.227,39.587 163.802,43.241 "/>
<path fill="#7D7F68" d="M121.166,49.208l0.052,0.022L121.166,49.208z"/>
<path fill="#C7A008" d="M140.128,52.38c0.274,0.277,0.021,0.078,0.328,0.288l2.095-1.477c-0.311-0.22-0.619-0.456-0.902-0.72  c-3.04-2.77-2.25-9-0.277-12.41C136.18,42.249,136.45,48.696,140.128,52.38"/>
<path fill="#C7A008" d="M165.418,55.868c-3.46,2.862-7.404,4.728-12.615,5.987c-1.139,0.261-2.255,0.451-3.347,0.547  c-8.271,0.813-15.21-2.985-17.843-9.146c-0.328-0.746-0.581-1.501-0.772-2.307c-1.218-5.188-0.178-9.824,2.385-13.458  c0.254-0.352,0.521-0.689,0.801-1.032c-0.131,0.112-0.265,0.208-0.374,0.313c-0.985,0.877-1.857,1.838-2.598,2.888  c-2.566,3.634-3.606,8.273-2.377,13.453c0.188,0.806,0.437,1.571,0.758,2.301c2.634,6.174,9.575,9.97,17.839,9.163  c1.101-0.105,2.213-0.288,3.353-0.563c5.217-1.26,9.158-3.117,12.618-5.979c0.845-0.695,1.66-1.453,2.451-2.282l-0.073-0.07  C165.545,55.752,165.486,55.811,165.418,55.868"/>
<polygon fill="#C7A008" points="116.37,27.199 115.995,26.853 107.079,39.377 107.129,40.185 "/>
<polygon fill="#C7A008" points="166.089,40.674 166.055,40.831 167.227,39.587 168.244,38.505 167.014,46.131 165.418,44.702   164.837,48.294 161.631,45.41 165.053,41.767 "/>
<polygon fill="#C7A008" points="160.061,15.727 154.146,8.136 152.208,10.843 156.825,17.115 "/>
<path fill="#C7A008" d="M60.75,17l7.332,35.99c0,0-4.67,11.046-3.207,16.26c2,7.125,7.278,9.781,7.278,9.781l1.136,7.269  l-2.123,1.367l-0.725-3.572c0,0-6.192-2.952-8.692-8.595c-4.734-10.685,2.947-19.726,2.947-19.726l-6.614-32.608L16.167,40.125  L14.75,36.75L60.75,17z"/>
<path fill="#C7A008" d="M97.708,57.119c-0.07-0.33-0.14-0.665-0.247-0.988c-0.841-3.025-2.648-5.44-5.017-7.047  c-3.834-2.604-9.186-3.139-14.52-0.887c-2.806,1.213-5.246,3.08-7.175,5.31c1.483-1.276,3.178-2.339,5.009-3.131  c5.322-2.259,10.674-1.725,14.521,0.876c2.369,1.609,4.161,4.023,5.02,7.044c0.095,0.324,0.169,0.664,0.243,1.005  c0.228,1.15,0.334,2.313,0.29,3.504c-0.111,3.482-1.402,6.988-3.549,9.982c-0.346,0.474-0.71,0.916-1.087,1.354  c1.222-1.055,2.313-2.222,3.245-3.529c2.156-2.975,3.444-6.487,3.558-9.99C98.047,59.452,97.95,58.27,97.708,57.119"/>
<path fill="#C7A008" d="M83.001,52.678c-0.021,0.033,2.167-2.168,2.142-2.168c-2.737-0.104-3.894,2.477-3.989,2.68  C81.716,52.918,82.336,52.741,83.001,52.678"/>
<path fill="#C7A008" d="M88.156,55.833c0.111,0.371,0.169,0.74,0.169,1.144c0,0.57-0.127,1.117-0.358,1.621  c0.438-0.229,3.603-1.764,2.376-5.016C90.409,53.682,88.077,55.823,88.156,55.833"/>
<path fill="#C7A008" d="M75.706,57.643c0-1.338,2.291-4.584,3.005-5.667c-3.618,2.299-5.176,5.404-5.176,7.849  c0,4.188,3.681,7.558,8.082,7.558c2.082,0,5.895-1.101,8.389-5.137c-1.307,0.859-4.629,2.918-6.372,2.918  C79.234,65.163,75.706,61.855,75.706,57.643"/>
<polygon fill="#C7A008" points="106.735,78.432 109.426,78.586 108.894,59.258 106.678,61.477 "/>
<polygon fill="#C7A008" points="104.985,43.146 107.113,40.164 106.659,23.867 91.232,29.197 91.287,30.703 104.04,26.906 "/>
<polygon fill="#C7A008" points="117.804,24.018 116.37,27.199 126.913,37.104 129.783,35.012 "/>
<path fill="#C7A008" d="M127.962,55.5l-14.064-4.65l-2.049,2.164l14.011,5.607c1.589,2.994,3.997,5.559,7.029,7.434  c2.935,1.795,6.289,2.87,9.841,3.211v6.92l2.172,1.084l0.687-10.396L127.962,55.5z"/>
<path fill="#C7A008" d="M150.546,53.544c3.454-0.833,5.446-2.635,7.161-4.618c-1.287,1.056-7.739,2.462-8.823,2.829l-2.125,2.263  C147.73,54.104,149.354,53.842,150.546,53.544"/>
<path fill="#C7A008" d="M144.264,29.629c-6.369,0.834-9.688,6.181-10.237,6.832c2.352-1.987,5.3-3.462,8.62-4.248  c7.881-1.906,14.83,0.497,19.125,5.807l2.658-2.25C160.176,30.552,152.143,27.729,144.264,29.629"/>
<path fill="#C7A008" d="M165.625,55.684c0.768-0.646,2.133-1.299,2.859-2.06l-8.528-7.62c-0.653,0.781-1.245,2.068-2.042,2.745  L165.625,55.684z"/>
<path fill="#C7A008" d="M209.389,76.104c-8.947-7.354-8.412-23.123-4.02-28.125l-3.942-24.715l-8.622,1.113l-0.384,2.177h6.524  l3.455,22.424c-4.396,5.019-6.521,11.744-5.051,17.899c1.137,4.757,4.059,8.606,8.265,10.834c0.423,0.231,0.86,0.435,1.307,0.625  l0.056,0.329l2.565,0.404C209.542,79.068,209.809,76.318,209.389,76.104z"/>
<polygon fill="#C7A008" points="187.361,44.959 189.543,42.755 187.249,25.99 175.001,26.9 174.63,29.078 184.464,29.078 "/>
<polygon fill="#C7A008" points="188.661,65.932 189.447,68.066 193.988,55.575 191.836,57.73 "/>
<polygon fill="#C7A008" points="180.221,54.747 177.878,69.561 180.122,70.418 182.407,52.564 "/>
<path fill="#C7A008" d="M226.574,47.832c1.287,0.919,2.385,2.082,3.211,3.465c0.652,1.061,1.145,2.249,1.46,3.553  c1.071,4.453-0.21,9.27-3.041,13.133c-0.285,0.393-0.599,0.771-0.899,1.144c1.15-0.989,15.118-11.292,1.471-24.824  c-15.01-4.948-20.691,4.845-21.223,5.466c1.586-1.348,3.416-2.463,5.398-3.221C218.031,44.623,223.029,45.29,226.574,47.832"/>
<path fill="#C7A008" d="M219.007,48.808c0.042,0.095,2.155-2.202,2.198-2.202c-2.671,0.11-3.954,1.399-3.822,1.994  c-0.16,0.231-0.29,0.46-0.392,0.713C217.561,49.029,218.615,48.811,219.007,48.808"/>
<path fill="#C7A008" d="M224.029,52.165c0.096,0.358,0.142,0.733,0.134,1.136c-0.024,0.516-0.158,0.989-0.354,1.43  c0.406-0.183,3.644-1.188,2.407-4.75C226.248,50.082,223.994,52.167,224.029,52.165"/>
<path fill="#C7A008" d="M216.938,63.475c3.021,0.129,6.362-1.727,8.758-5.007c-6.147,1.261-12.61-8.977-11.963-9.979  c-2.322,1.684-4.379,4.932-4.473,7.202C209.1,59.9,212.527,63.299,216.938,63.475"/>
<polygon fill="#C7A008" points="256.495,35.287 256.33,38.379 266.948,40.735 250.629,90.15 252.07,91.113 269.658,38.329 "/>
<polygon fill="#C7A008" points="240.357,57.712 249.667,59.5 251.642,57.827 243.141,55.844 246.288,32.927 229.742,29.629   229.857,32.577 243.833,35.417 "/>
<polygon fill="#C7A008" points="236.659,80.54 238.878,81.259 241.063,64.183 238.888,66.464 "/>
<polygon fill="#C7A008" points="42.333,42.333 39.823,44.074 53.125,90.263 56,89.583 "/>
<path fill="#7D7F68" d="M149.949,38.815c-2.066-0.795-4.992-0.556-6.572,1.173c-0.367,0.401-1.081,1.424-1.307,1.881  c1.529-1.216,4.252-1.479,6.037-0.835L149.949,38.815z"/>
<g>
	<g>
		<path fill="#3567B0" d="M153.223,38.491c-3.496-3.207-8.93-2.958-12.119,0.535c-3.208,3.487-2.956,8.924,0.545,12.118    c0.285,0.275,0.594,0.5,0.903,0.721l11.277-12.771C153.63,38.886,153.43,38.679,153.223,38.491z M142.575,47.474    c-1.103-2.025-0.88-4.596,0.769-6.398c1.586-1.728,4.016-2.22,6.088-1.421L142.575,47.474z"/>
	</g>
</g>
<polygon fill="#1E2D5F" points="168.291,37.089 162.046,43.106 167.979,48.434 "/>
<path fill="#3466AF" d="M226.199,49.981c0.095,0.379,0.144,0.754,0.132,1.153c-0.104,2.386-2.347,4.228-5.021,4.103  c-2.672-0.092-4.771-2.119-4.666-4.5c0.09-2.231,2.078-3.997,4.533-4.11c-0.467-0.105-0.953-0.16-1.462-0.178  c-4.473-0.193-8.129,2.975-8.282,6.919c-0.172,4.218,3.209,7.657,7.61,7.848c4.479,0.179,8.133-3,8.312-7.198  C227.407,52.563,226.977,51.168,226.199,49.981"/>
<linearGradient id="SVGID_8_" gradientUnits="userSpaceOnUse" x1="960.666" y1="1315.4297" x2="976.5947" y2="1315.4297" gradientTransform="matrix(1, 0, 0, 1, -884.96, -1257.66)">
	<stop offset="0" style="stop-color:#3C5AA6"/>
	<stop offset="0.9331" style="stop-color:#2B73B9"/>
	<stop offset="1" style="stop-color:#2A75BB"/>
</linearGradient>
<path fill="url(#SVGID_8_)" d="M90.504,54.798c0,2.396-2.179,4.316-4.848,4.316c-2.676,0-4.847-1.921-4.847-4.316  c0-2.233,1.91-4.074,4.358-4.288c-0.469-0.085-0.957-0.134-1.461-0.134c-4.472,0-8,3.317-8,7.267c0,4.215,3.529,7.521,7.928,7.521  c4.476,0,8.001-3.309,8.001-7.521c0-1.459-0.482-2.834-1.311-3.966C90.436,54.018,90.504,54.396,90.504,54.798"/>
<g>
	<g>
		
			<linearGradient id="SVGID_9_" gradientUnits="userSpaceOnUse" x1="894.1367" y1="1307.4922" x2="1159.8799" y2="1307.4922" gradientTransform="matrix(1, 0, 0, 1, -884.96, -1257.66)">
			<stop offset="0" style="stop-color:#3C5AA6"/>
			<stop offset="0.9331" style="stop-color:#2B73B9"/>
			<stop offset="1" style="stop-color:#2A75BB"/>
		</linearGradient>
		<path fill="url(#SVGID_9_)" d="M167.227,39.588c0.34-0.361,0.68-0.722,1.02-1.083c-0.41,2.542-0.82,5.084-1.23,7.627    c-1.07-0.964-2.141-1.928-3.211-2.892C164.945,42.023,166.086,40.805,167.227,39.588 M154.209,8.432    c1.794,2.437,3.588,4.874,5.382,7.311c-4.468,2.215-8.936,4.43-13.403,6.645c-0.646,0.321-1.293,0.641-1.939,0.962    c-0.057,0.028-1.208-1.473-1.039-1.676c1.441-1.735,2.883-3.47,4.324-5.205C149.758,13.79,151.983,11.111,154.209,8.432     M66.317,53.082c-3.139,4.646-5.057,10.047-4.102,15.688c0.84,4.96,3.812,9.445,8.153,12.013c0.306,0.181,1.617,0.611,1.688,0.966    c0.127,0.639,0.253,1.278,0.38,1.918c0.129,0.648,0.257,1.298,0.386,1.946c0.064,0.323,0.037,0.267-0.274,0.362    c-2.608,0.802-5.216,1.604-7.825,2.406c-0.199,0.062-0.397,0.122-0.596,0.184c-2.347-8.755-4.694-17.51-7.041-26.265    c-2.071-7.725-4.142-15.45-6.213-23.176c-2.315,0.847-4.63,1.695-6.945,2.542c-0.127,0.046-1.731,0.578-1.71,0.654    c0.08,0.29,0.161,0.581,0.241,0.871c1.17,4.227,2.341,8.454,3.511,12.681c2.954,10.667,5.907,21.335,8.86,32.002    c0.102,0.368,0.204,0.736,0.306,1.104c0.07,0.251-0.829,0.371-1.02,0.431c-2.569,0.803-5.137,1.604-7.706,2.407    c-0.356,0.111-2.879-6.906-3.104-7.477c-4.413-11.149-8.826-22.299-13.239-33.449c-0.645-1.629-1.29-3.259-1.935-4.888    c-1.241,0.652-2.511,1.252-3.771,1.865c-0.684,0.333-1.086,0.923-1.493,0.235c-0.748-1.263-1.495-2.526-2.243-3.789    c-1.423-2.404-2.846-4.808-4.27-7.211c8.69-3.558,17.379-7.115,26.069-10.672c5.754-2.355,11.507-4.711,17.261-7.066    c1.938,9.772,3.875,19.544,5.813,29.316c0.213,1.078,0.427,2.156,0.641,3.234C66.208,52.25,66.412,52.761,66.317,53.082     M70.6,48.213c-1.764-9.799-3.528-19.598-5.292-29.397c-0.394-2.188-0.788-4.377-1.182-6.566    c-7.773,3.141-15.547,6.281-23.321,9.422c-10.019,4.048-20.037,8.096-30.055,12.143c-0.524,0.212-1.048,0.423-1.572,0.635    c2.344,3.958,4.687,7.917,7.029,11.875c0.957,1.617,1.914,3.233,2.87,4.85c0.682,1.152,1.357,2.309,2.051,3.454    c0.208,0.343,2.402-0.99,2.78-1.176c0.619-0.305,1.236-0.609,1.862-0.897c3.366,8.626,6.731,17.253,10.097,25.879    c2.038,5.222,4.075,10.442,6.112,15.664c0.475,1.216,0.949,2.432,1.423,3.647c0.101,0.259,0.056,0.267,0.33,0.177    c0.871-0.288,1.742-0.576,2.612-0.864c1.089-0.36,13.084-4.102,13.014-4.377c-0.846-3.304-1.692-6.607-2.538-9.911    c-2.901-11.332-5.802-22.663-8.702-33.994c-0.206-0.802-0.411-1.604-0.616-2.407c-0.04-0.156-0.08-0.313-0.12-0.469    c-0.023-0.092,1.282-0.579,1.452-0.651c2.29,8.856,4.58,17.713,6.87,26.568c1.891,7.311,3.781,14.621,5.671,21.932    c4.036-1.254,8.073-2.508,12.109-3.761c1.463-0.455,2.925-0.909,4.388-1.363c0.114-0.035-0.906-5.052-1.003-5.59    c6.672,0.925,13.384-1.749,18.138-6.396c0.25,2.688,0.5,5.375,0.749,8.063c4.94-0.728,9.88-1.455,14.82-2.182    c0.81-0.12,1.619-0.239,2.429-0.358c0.305-0.045,0.14-0.762,0.14-1.015c-0.005-2.895-0.01-5.79-0.015-8.686    c-0.003-1.971-0.007-3.942-0.01-5.914c8.83,4.364,17.659,8.728,26.488,13.092c3.283,1.622,6.565,3.245,9.849,4.867    c0-4.333,0-8.665,0-12.998c0-1.064,0-2.129,0-3.193c0-0.303,0-0.605,0-0.909c0-0.342-0.078-0.278,0.365-0.321    c5.045-0.483,10.199-2.197,14.547-4.802c-0.509,3.113-1.018,6.226-1.526,9.339c6.53,1.027,13.062,2.056,19.592,3.083    c0.358-2.35,0.717-4.7,1.075-7.05c1.706,3.151,3.411,6.302,5.117,9.453c1.043-2.009,2.085-4.019,3.128-6.027    c0.282,2.443,0.564,4.887,0.847,7.331c0.068,0.592,0.137,1.185,0.205,1.776c0.017,0.143-0.013,0.678,0.091,0.789    c0.168,0.181,1.069,0.188,1.3,0.229c5.689,1.003,11.379,2.006,17.067,3.009c1.282,0.226,2.563,0.452,3.846,0.678    c-0.393-2.491-0.785-4.982-1.178-7.474c3.939,0.446,7.973-0.392,11.492-2.187c-0.245,2.199-0.489,4.398-0.734,6.597    c-0.03,0.277-0.345,1.324,0.003,1.378c0.761,0.117,1.522,0.234,2.284,0.353c4.466,0.688,8.933,1.376,13.398,2.063    c-0.241,1.158-0.482,2.317-0.723,3.476c-0.078,0.373-0.658,1.862-0.219,2.007c2.287,0.751,4.574,1.503,6.86,2.254    c2.615,0.859,5.229,1.719,7.844,2.577c0.883,0.291,0.722,0.206,1.001-0.637c3.134-9.445,6.267-18.89,9.4-28.335    c3.294-9.929,6.589-19.858,9.883-29.787c0.166-0.5,0.332-1.001,0.498-1.501c-7.099-1.726-14.196-3.452-21.295-5.178    c-0.93,3.99-1.859,7.979-2.788,11.969c-0.592,2.539-1.184,5.078-1.774,7.617c-0.159,0.683-0.318,1.365-0.478,2.047    c-0.151,0.652-0.658,0.275-1.272,0.179c0.796-4.682,1.591-9.363,2.387-14.045c0.422-2.487,0.845-4.973,1.268-7.46    c0.015-0.088,0.203-0.922,0.127-0.939c-0.492-0.107-0.985-0.215-1.478-0.322c-7.992-1.744-15.983-3.488-23.976-5.232    c0.047,3.726,0.094,7.452,0.141,11.177c0.009,0.728,0.019,1.457,0.027,2.185c0.007,0.525,0.541,0.415,1.021,0.522    c0.556,0.125,1.112,0.249,1.668,0.374c0.164,0.037,0.912,0.087,1.017,0.228c0.108,0.146-0.104,0.957-0.123,1.135    c-0.048,0.443-0.096,0.886-0.144,1.329c-1.611-0.641-3.056-1.375-4.786-1.72c-1.781-0.354-3.612-0.438-5.42-0.276    c-3.773,0.34-7.438,1.744-10.502,3.968c-0.731-4.617-1.463-9.234-2.194-13.851c-0.422-2.661-0.843-5.322-1.265-7.983    c-0.081-0.512-0.162-1.023-0.243-1.535c-0.012-0.073-1.282-0.02-1.384-0.02c-4.982,0-9.966,0-14.949,0    c-0.178,0-0.266,2.689-0.48,2.689c-0.684,0-1.367,0-2.051,0c-3.059,0-6.118,0-9.177,0c-1.736,0-3.473,0-5.209,0    c-0.062,0-0.722-0.036-0.73,0.017c-0.078,0.48-0.156,0.96-0.235,1.441c-0.574,3.522-1.149,7.043-1.725,10.565    c-1.954-2.414-3.937-4.68-6.586-6.371c-3.497-2.231-7.598-3.381-11.734-3.467c4.865-2.615,9.73-5.23,14.596-7.845    c-3.393-5.063-6.785-10.126-10.178-15.189c-6.081,7.007-12.163,14.015-18.245,21.022c-0.318,0.367,0.466,0.911,0.716,1.216    c0.771,0.94,1.542,1.881,2.313,2.821c-2.353,0.961-4.567,2.268-6.515,3.905c-0.957,0.804-0.769,1.01-1.575,0.295    c-1.758-1.559-3.516-3.119-5.273-4.678c-3.291-2.92-6.581-5.839-9.872-8.759c-1.837,3.522-3.675,7.044-5.513,10.566    c0.071-3.385,0.141-6.77,0.212-10.154c-4.267,1.363-8.533,2.726-12.8,4.089c-2.839,0.907-5.679,1.814-8.519,2.722    c-0.329,0.105-3.344,0.831-3.328,1.161c0.209,4.382,0.418,8.765,0.628,13.148c1.398-0.363,2.796-0.725,4.194-1.088    c0.207,2.237,0.414,4.475,0.62,6.712C84.998,41.502,76.399,43.324,70.6,48.213 M98.001,60.617    c-0.339,10.441-10.976,20.02-21.53,17.803c-4.291-0.901-7.826-3.884-9.417-7.973c-1.627-4.181-1.045-8.845,0.932-12.802    c3.042-6.089,9.335-10.675,16.25-10.861c3.589-0.097,7.204,1.094,9.82,3.6C96.803,53.014,98.149,56.849,98.001,60.617     M144.902,77.27c-8.796-4.399-17.592-8.799-26.389-13.198c-3.222-1.611-6.444-3.224-9.667-4.835    c0.017,4.971,0.034,9.942,0.05,14.913c0.004,1.078,0.007,2.156,0.011,3.233c0.001,0.49,0.171,0.725-0.326,0.793    c-2.725,0.371-5.45,0.743-8.175,1.114c-0.275,0.037-0.549,0.075-0.824,0.112c-0.203-2.433-0.406-4.866-0.609-7.299    c-0.051-0.608,0.159-0.818,0.468-1.405c0.698-1.326,1.272-2.719,1.703-4.155c0.811-2.703,1.107-5.569,0.753-8.375    c-0.346-2.746-1.319-5.41-2.887-7.696c-0.365-0.532-0.761-1.043-1.184-1.529c-0.156-0.179-0.868-0.741-0.885-0.953    c-0.019-0.223-0.038-0.446-0.057-0.669c-0.231-2.749-0.463-5.499-0.695-8.248c-0.195-2.316-0.39-4.633-0.585-6.949    c-1.396,0.362-2.792,0.724-4.188,1.086c-0.025-0.54-0.439-3.939-0.073-4.048c1.468-0.438,2.937-0.875,4.405-1.312    c3.487-1.038,6.974-2.077,10.461-3.115c0.306,5.149,0.612,10.299,0.918,15.448c3.678-5.167,7.356-10.335,11.034-15.503    c3.48,3.315,6.961,6.629,10.442,9.944c0.347,0.331,0.4,0.271,0.079,0.609c-0.588,0.62-1.177,1.24-1.766,1.86    c-2.088,2.2-4.176,4.399-6.264,6.599c-2.263,2.384-4.526,4.769-6.79,7.153c4.504,1.782,9.008,3.563,13.511,5.344    c0.211,0.084,0.421,0.167,0.632,0.25c0.165,0.065,0.399,0.683,0.495,0.844c0.381,0.638,0.8,1.253,1.254,1.842    c1.67,2.163,3.807,3.955,6.198,5.273c2.543,1.401,5.361,2.263,8.237,2.627c0.71,0.091,0.707-0.054,0.707,0.55    c0,0.569,0,1.14,0,1.709C144.901,71.946,144.901,74.607,144.902,77.27 M126.181,51.144c-1.672-0.645-3.343-1.29-5.015-1.935    c1.558-1.515,3.117-3.029,4.675-4.544C125.634,46.826,125.761,49.015,126.181,51.144 M165.418,55.868    c-7.498,6.203-20.005,9.449-28.595,3.622c-4.14-2.808-6.347-7.36-6.483-12.321c-0.152-5.501,2.521-10.555,6.959-13.757    c4.342-3.132,10.118-4.567,15.423-3.85c2.375,0.321,4.685,1.104,6.74,2.341c0.468,0.282,4.79,3.476,4.408,3.882    c-3.449,3.672-6.899,7.344-10.35,11.016c-1.546,1.646-3.093,3.292-4.639,4.938c2.089,0.394,4.733-0.43,6.581-1.359    c1.817-0.914,3.283-2.305,4.592-3.84c2.607,2.345,5.216,4.689,7.817,7.04C167.095,54.386,166.274,55.149,165.418,55.868     M197.271,77.195c-1.089-7.212-2.178-14.423-3.267-21.635c-1.54,3.979-3.079,7.956-4.619,11.935    c-2.079-4.485-4.159-8.972-6.238-13.457c-0.074-0.16-0.533-1.46-0.716-1.46c-0.115,0-0.256,1.372-0.277,1.506    c-0.459,2.898-0.917,5.796-1.376,8.694c-0.373,2.358-0.746,4.717-1.119,7.075c-2.312-0.402-4.624-0.805-6.936-1.207    c-1.304-0.227-2.607-0.453-3.911-0.681c-0.747-0.13-0.693-0.044-0.566-0.797c0.464-2.761,0.929-5.522,1.393-8.283    c0.178-1.056,1.039-1.561,1.77-2.313c0.998-1.028,1.996-2.056,2.994-3.084c0.124-0.127,0.247-0.255,0.371-0.382    c-0.911-0.815-1.822-1.631-2.732-2.447c-0.456-0.408-0.938-0.564-0.838-1.166c0.359-2.141,0.72-4.281,1.079-6.422    c0.889-5.288,1.777-10.576,2.666-15.864c0.077-0.462,0.259-0.309,0.738-0.309c1.315,0,2.631,0,3.946,0c1.571,0,3.143,0,4.715,0    c0.383,0,1.973-0.254,2.282,0c0.233,0.191,0.265,1.447,0.316,1.729c0.25,1.364,0.5,2.728,0.75,4.091    c0.531,2.903,1.063,5.806,1.595,8.708c0.083,0.455,0.167,0.909,0.25,1.364c0.865-4.884,1.729-9.767,2.595-14.651    c0.184-1.036,0.367-2.072,0.551-3.108c0.103-0.581-0.017-0.658,0.577-0.658c2.587,0,5.175,0,7.762,0    c0.291,0,0.657,3.645,0.712,3.998c0.476,3.093,0.951,6.185,1.427,9.278c0.403,2.621,0.807,5.243,1.21,7.864    c0.053,0.338,0.279,0.957,0.2,1.298c-1.774,2.021-3.206,4.35-4.17,6.863c-2.036,5.3-1.792,11.346,1.271,16.21    c1.449,2.301,3.475,4.205,5.85,5.527c0.25,0.14,1.549,0.59,1.583,0.811c0.046,0.308,0.093,0.616,0.14,0.925    c0.097,0.641,0.194,1.28,0.291,1.921C205.449,78.444,201.36,77.819,197.271,77.195 M225.996,70.146    c-4.732,3.366-11.307,4.612-16.557,1.675c-4.694-2.627-6.893-8.11-6.069-13.32c1.723-10.893,15.792-20.042,25.629-12.65    c3.799,2.855,5.329,7.727,4.618,12.329C232.874,62.985,229.925,67.346,225.996,70.146 M251.951,90.538    c-2.343-0.698-4.686-1.396-7.028-2.094c-0.579-0.172-0.694-0.055-0.56-0.61c0.2-0.825,0.4-1.65,0.601-2.476    c1.396-5.762,2.794-11.524,4.191-17.286c0.191-0.789,0.383-1.579,0.574-2.369c-2.889-0.507-5.778-1.014-8.667-1.521    c-0.785,4.899-1.57,9.799-2.355,14.698c-0.104,0.641-0.206,1.282-0.309,1.923c-0.004,0.026-2.154-0.331-2.297-0.354    c-0.551-0.088-7.014-1.021-7.001-1.147c0.221-2.314,0.441-4.629,0.662-6.943c0.021-0.226,0.975-0.876,1.162-1.058    c0.447-0.434,0.878-0.885,1.29-1.353c0.884-1.005,1.682-2.086,2.381-3.228c1.315-2.149,2.28-4.521,2.784-6.992    c1.016-4.99,0.01-10.349-3.206-14.368c-0.281-0.352-1.708-1.518-1.673-1.891c0.044-0.46,0.088-0.92,0.132-1.379    c0.147-1.541,0.294-3.082,0.441-4.623c0.067-0.709,0.135-1.419,0.202-2.128c0.009-0.087-2.587-0.695-2.817-0.757    c-0.099-0.026-0.701-0.116-0.695-0.229c0.025-0.464,0.05-0.928,0.074-1.392c0.053-0.986,0.105-1.973,0.158-2.959    c4.851,0.975,9.7,1.95,14.551,2.924c0.087,0.018,1.474,0.277,1.47,0.305c-0.079,0.489-0.157,0.979-0.235,1.467    c-0.425,2.655-0.85,5.31-1.274,7.965c-0.15,0.94-2.255,13.331-2.088,13.364c2.579,0.503,5.158,1.006,7.737,1.509    c0.223,0.044,1.449,0.439,1.512,0.182c0.155-0.645,0.311-1.288,0.465-1.933c1.374-5.705,2.748-11.41,4.122-17.115    c0.195-0.812,0.392-1.624,0.587-2.435c0.114-0.477,0.137-0.355,0.633-0.246c2.79,0.616,5.579,1.231,8.369,1.847    c1.092,0.241,2.185,0.482,3.276,0.723c-2.747,8.315-5.493,16.63-8.24,24.946c-2.964,8.975-5.928,17.948-8.893,26.923    C251.976,90.465,251.963,90.502,251.951,90.538"/>
	</g>
</g>
<path d="M263.488,86.982h0.435c0.509,0,0.933-0.178,0.933-0.66c0-0.321-0.252-0.66-0.933-0.66c-0.194,0-0.331,0.023-0.435,0.041  V86.982z M263.488,89.085h-0.612v-3.797c0.315-0.056,0.618-0.103,1.073-0.103c0.578,0,0.96,0.127,1.178,0.295  c0.245,0.168,0.359,0.42,0.359,0.785c0,0.502-0.334,0.801-0.739,0.935v0.022c0.334,0.063,0.554,0.361,0.633,0.926  c0.087,0.594,0.185,0.816,0.237,0.935h-0.629c-0.088-0.116-0.178-0.47-0.254-0.968c-0.094-0.482-0.342-0.663-0.826-0.663h-0.416  v1.633H263.488L263.488,89.085z M264.124,84.221c-1.504,0-2.739,1.291-2.739,2.883c0,1.623,1.235,2.894,2.756,2.894  c1.506,0.021,2.729-1.271,2.729-2.878c0-1.605-1.223-2.896-2.729-2.896h-0.017V84.221z M264.143,83.688  c1.854,0,3.35,1.516,3.35,3.414c0,1.934-1.494,3.431-3.364,3.431c-1.872,0-3.39-1.496-3.39-3.431c0-1.898,1.516-3.414,3.39-3.414  H264.143z"/>
</svg>